<?xml version="1.0" encoding="utf-8"?>
<!-- Generator: Adobe Illustrator 27.3.1, SVG Export Plug-In . SVG Version: 6.00 Build 0)  -->
<svg version="1.1" id="Capa_1" xmlns="http://www.w3.org/2000/svg" xmlns:xlink="http://www.w3.org/1999/xlink" x="0px" y="0px"
	 viewBox="0 0 512 512" style="enable-background:new 0 0 512 512;" xml:space="preserve">
<g>
	<g>
		<path d="M270.2,506.1C270.2,506.1,270.2,506.1,270.2,506.1l104-104.5c7.8-7.8,7.8-20.5-0.1-28.3c-7.8-7.8-20.5-7.8-28.3,0.1
			L276,443.6V20c0-11-9-20-20-20c-11,0-20,9-20,20v423.6l-69.8-70.2c-7.8-7.8-20.5-7.9-28.3-0.1c-7.8,7.8-7.9,20.5-0.1,28.3
			l104,104.5c0,0,0,0,0,0C249.7,514,262.4,513.9,270.2,506.1z"/>
	</g>
</g>
</svg>
